<mxfile host="Electron" modified="2024-02-03T22:59:56.742Z" agent="Mozilla/5.0 (X11; Linux x86_64) AppleWebKit/537.36 (KHTML, like Gecko) draw.io/22.1.21 Chrome/120.0.6099.109 Electron/28.1.0 Safari/537.36" etag="sBQ5gi4VtlpR07wAowfi" version="22.1.21" type="device">
  <diagram name="Page-1" id="ew7vi9b7o_5ddHdVxSJt">
    <mxGraphModel dx="-276" dy="1463" grid="1" gridSize="10" guides="1" tooltips="1" connect="1" arrows="1" fold="1" page="1" pageScale="1" pageWidth="850" pageHeight="1100" math="0" shadow="0">
      <root>
        <mxCell id="0" />
        <mxCell id="1" parent="0" />
        <mxCell id="0yMUKXwJDYe7jOVYLK8S-43" value="" style="rounded=0;whiteSpace=wrap;html=1;strokeColor=#d88f8c;strokeWidth=3;align=center;verticalAlign=top;fontFamily=Helvetica;fontSize=12;fontColor=default;fillColor=#242434;" parent="1" vertex="1">
          <mxGeometry x="879.9999999999999" y="-10" width="370" height="291" as="geometry" />
        </mxCell>
        <mxCell id="0yMUKXwJDYe7jOVYLK8S-42" value="" style="rounded=0;whiteSpace=wrap;html=1;strokeColor=#d88f8c;strokeWidth=3;align=center;verticalAlign=top;fontFamily=Helvetica;fontSize=12;fontColor=default;fillColor=#242434;" parent="1" vertex="1">
          <mxGeometry x="899.9999999999999" y="11" width="330" height="180" as="geometry" />
        </mxCell>
        <mxCell id="0yMUKXwJDYe7jOVYLK8S-7" value="" style="verticalLabelPosition=bottom;verticalAlign=top;html=1;shape=mxgraph.basic.orthogonal_triangle;rotation=90;container=0;strokeColor=#D88F8C;strokeWidth=3;fillColor=#242434;" parent="1" vertex="1">
          <mxGeometry x="1110" y="41.710000000000036" width="90" height="128.57" as="geometry" />
        </mxCell>
        <mxCell id="0yMUKXwJDYe7jOVYLK8S-25" value="" style="verticalLabelPosition=bottom;verticalAlign=top;html=1;shape=mxgraph.basic.orthogonal_triangle;rotation=-90;container=0;strokeColor=#D88F8C;strokeWidth=3;fillColor=#242434;" parent="1" vertex="1">
          <mxGeometry x="1110" y="81.71500000000003" width="90" height="128.57" as="geometry" />
        </mxCell>
        <mxCell id="0yMUKXwJDYe7jOVYLK8S-17" style="edgeStyle=orthogonalEdgeStyle;shape=connector;curved=0;rounded=1;orthogonalLoop=1;jettySize=auto;html=1;labelBackgroundColor=default;strokeColor=#D88F8C;strokeWidth=3;align=center;verticalAlign=middle;fontFamily=Helvetica;fontSize=11;fontColor=default;startArrow=none;startFill=0;endArrow=openThin;endFill=0;" parent="1" source="0yMUKXwJDYe7jOVYLK8S-2" target="0yMUKXwJDYe7jOVYLK8S-7" edge="1">
          <mxGeometry relative="1" as="geometry" />
        </mxCell>
        <mxCell id="0yMUKXwJDYe7jOVYLK8S-8" value="Plan" style="text;html=1;strokeColor=none;fillColor=none;align=center;verticalAlign=middle;whiteSpace=wrap;rounded=0;fontColor=#ffffff;strokeWidth=3;" parent="1" vertex="1">
          <mxGeometry x="1090" y="61" width="50" height="30" as="geometry" />
        </mxCell>
        <mxCell id="0yMUKXwJDYe7jOVYLK8S-27" value="Execute" style="text;html=1;strokeColor=none;fillColor=none;align=center;verticalAlign=middle;whiteSpace=wrap;rounded=0;fontColor=#ffffff;strokeWidth=3;" parent="1" vertex="1">
          <mxGeometry x="1160" y="160" width="60" height="30" as="geometry" />
        </mxCell>
        <mxCell id="0yMUKXwJDYe7jOVYLK8S-31" style="edgeStyle=orthogonalEdgeStyle;shape=connector;curved=0;rounded=1;orthogonalLoop=1;jettySize=auto;html=1;exitX=0.5;exitY=0.5;exitDx=0;exitDy=0;exitPerimeter=0;entryX=0.5;entryY=0.5;entryDx=0;entryDy=0;entryPerimeter=0;labelBackgroundColor=default;strokeColor=#D88F8C;strokeWidth=3;align=center;verticalAlign=middle;fontFamily=Helvetica;fontSize=11;fontColor=default;startArrow=none;startFill=0;endArrow=openThin;endFill=0;" parent="1" source="0yMUKXwJDYe7jOVYLK8S-7" target="0yMUKXwJDYe7jOVYLK8S-25" edge="1">
          <mxGeometry relative="1" as="geometry">
            <Array as="points">
              <mxPoint x="1155" y="130" />
              <mxPoint x="1155" y="130" />
            </Array>
          </mxGeometry>
        </mxCell>
        <mxCell id="0yMUKXwJDYe7jOVYLK8S-18" value="" style="group;rotation=-180;" parent="1" vertex="1" connectable="0">
          <mxGeometry x="909.9999999999999" y="101" width="128.57000000000016" height="90" as="geometry" />
        </mxCell>
        <mxCell id="0yMUKXwJDYe7jOVYLK8S-19" value="" style="verticalLabelPosition=bottom;verticalAlign=top;html=1;shape=mxgraph.basic.orthogonal_triangle;rotation=-360;container=0;strokeColor=#D88F8C;strokeWidth=3;fillColor=#242434;" parent="0yMUKXwJDYe7jOVYLK8S-18" vertex="1">
          <mxGeometry width="128.57" height="90" as="geometry" />
        </mxCell>
        <mxCell id="0yMUKXwJDYe7jOVYLK8S-21" value="Monitor" style="text;html=1;strokeColor=none;fillColor=none;align=center;verticalAlign=middle;whiteSpace=wrap;rounded=0;fontColor=#FFFFFF;strokeWidth=3;" parent="0yMUKXwJDYe7jOVYLK8S-18" vertex="1">
          <mxGeometry x="1.1368683772161603e-13" y="60" width="60" height="30" as="geometry" />
        </mxCell>
        <mxCell id="0yMUKXwJDYe7jOVYLK8S-2" value="" style="verticalLabelPosition=bottom;verticalAlign=top;html=1;shape=mxgraph.basic.orthogonal_triangle;rotation=-180;container=0;strokeColor=#D88F8C;strokeWidth=3;fillColor=#242434;" parent="1" vertex="1">
          <mxGeometry x="909.9999999999999" y="61" width="128.57" height="90" as="geometry" />
        </mxCell>
        <mxCell id="0yMUKXwJDYe7jOVYLK8S-9" value="" style="verticalLabelPosition=middle;verticalAlign=middle;html=1;shape=trapezoid;perimeter=trapezoidPerimeter;whiteSpace=wrap;size=0.23;arcSize=10;flipV=1;labelPosition=center;align=center;rotation=-180;strokeColor=#D88F8C;strokeWidth=3;fillColor=#242434;" parent="1" vertex="1">
          <mxGeometry x="990" y="141" width="150" height="50" as="geometry" />
        </mxCell>
        <mxCell id="0yMUKXwJDYe7jOVYLK8S-32" value="Knowledge" style="text;html=1;strokeColor=none;fillColor=none;align=center;verticalAlign=middle;whiteSpace=wrap;rounded=0;fontColor=#ffffff;strokeWidth=3;" parent="1" vertex="1">
          <mxGeometry x="1035" y="150" width="60" height="30" as="geometry" />
        </mxCell>
        <mxCell id="0yMUKXwJDYe7jOVYLK8S-36" style="edgeStyle=orthogonalEdgeStyle;shape=connector;curved=0;rounded=1;orthogonalLoop=1;jettySize=auto;html=1;exitX=0;exitY=0;exitDx=0;exitDy=0;entryX=0.75;entryY=1;entryDx=0;entryDy=0;labelBackgroundColor=default;strokeColor=#D88F8C;strokeWidth=3;align=center;verticalAlign=middle;fontFamily=Helvetica;fontSize=12;fontColor=default;startArrow=none;startFill=0;endArrow=openThin;endFill=0;" parent="1" source="0yMUKXwJDYe7jOVYLK8S-34" target="0yMUKXwJDYe7jOVYLK8S-21" edge="1">
          <mxGeometry relative="1" as="geometry" />
        </mxCell>
        <mxCell id="0yMUKXwJDYe7jOVYLK8S-39" style="edgeStyle=orthogonalEdgeStyle;shape=connector;curved=0;rounded=1;orthogonalLoop=1;jettySize=auto;html=1;exitX=0.5;exitY=1;exitDx=0;exitDy=0;labelBackgroundColor=default;strokeColor=#D88F8C;strokeWidth=3;align=center;verticalAlign=middle;fontFamily=Helvetica;fontSize=12;fontColor=default;startArrow=none;startFill=0;endArrow=openThin;endFill=0;" parent="1" source="0yMUKXwJDYe7jOVYLK8S-27" edge="1">
          <mxGeometry relative="1" as="geometry">
            <mxPoint x="1190" y="230" as="targetPoint" />
          </mxGeometry>
        </mxCell>
        <mxCell id="0yMUKXwJDYe7jOVYLK8S-41" value="Autonomic Manager" style="text;html=1;strokeColor=none;fillColor=none;align=center;verticalAlign=middle;whiteSpace=wrap;rounded=0;fontColor=#FFFFFF;strokeWidth=3;" parent="1" vertex="1">
          <mxGeometry x="1002.5" y="20" width="125" height="30" as="geometry" />
        </mxCell>
        <mxCell id="0yMUKXwJDYe7jOVYLK8S-3" value="Analyze" style="text;html=1;strokeColor=none;fillColor=none;align=center;verticalAlign=middle;whiteSpace=wrap;rounded=0;fontColor=#FFFFFF;strokeWidth=3;" parent="1" vertex="1">
          <mxGeometry x="978.57" y="61" width="60" height="30" as="geometry" />
        </mxCell>
        <mxCell id="0yMUKXwJDYe7jOVYLK8S-29" style="edgeStyle=orthogonalEdgeStyle;shape=connector;curved=0;rounded=1;orthogonalLoop=1;jettySize=auto;html=1;exitX=0.5;exitY=0.5;exitDx=0;exitDy=0;exitPerimeter=0;entryX=0.5;entryY=0.5;entryDx=0;entryDy=0;entryPerimeter=0;labelBackgroundColor=default;strokeColor=#D88F8C;strokeWidth=3;align=center;verticalAlign=middle;fontFamily=Helvetica;fontSize=11;fontColor=default;startArrow=none;startFill=0;endArrow=openThin;endFill=0;" parent="1" source="0yMUKXwJDYe7jOVYLK8S-19" target="0yMUKXwJDYe7jOVYLK8S-2" edge="1">
          <mxGeometry relative="1" as="geometry">
            <Array as="points">
              <mxPoint x="974" y="130" />
              <mxPoint x="974" y="130" />
            </Array>
          </mxGeometry>
        </mxCell>
        <mxCell id="ZW6nNcWDt0XmGfBWngsh-1" value="" style="shape=image;verticalLabelPosition=bottom;labelBackgroundColor=default;verticalAlign=top;aspect=fixed;imageAspect=0;image=data:image/png,iVBORw0KGgoAAAANSUhEUgAAASAAAACECAIAAAC/G2GbAAAAA3NCSVQICAjb4U/gAAAQdklEQVR4nO3aeVzbdZ7H8c+PkHAEckAC4YZwFAo9oIXSg96XvbQ4o912tOtYXXU9uo466hz6mN1VR8dZZ3R1tPWYOqPFo6e19qQ3rVzSg6MgEK6kECAJIfcxf/xsSoVWC3y19fF+PvpHSPL7/o7m9bsSLjkpjwCADb8fewEAfsoQGABDCAyAIQQGwBACA2AIgQEwhMAAGEJgAAwhMACGEBgAQwgMgCEEBsAQAgNgCIEBMITAABhCYAAMITAAhhAYAEMIDIAhBAbAEAIDYAiBATCEwAAYQmAADCEwAIYQGABDCAyAIUGYPObHXoYbUoZK8eLP542LiThS3zL41ccXT81Pijmn1dtd7h9+2X4w8WGS/1u1sKvP0tprGvYgV9+SNzr/kUwsFglX5WWmRymSlXJ5cGCX2VKj1e86Xf9lU8doLd91a+n41AyVIkOleP/kGU23ceBLM9PiC7PTe/qtH5VVm6z2kcxl7bTx982aRERmu2PJXzY73ddRrgKOe2bFrAyVYnJi1Imv24Y9zlW25E/A8AObmRb/2MKpytBg3zNxckmcXGK2Oa7PwIQCwWOL8ono47Lqhs7eEY52sK5pWkpcs763teeynXe4OOjpJdPNdsf6or1tvX0jnMvirGT+QUiAKF8dfbS+9ftPOzc9cYo6Rmc0v3u8aoSLMaR1M7PHRik+O93w6sGykYxzpS350zDMwLJiIp4vnOvHce0G0z9OnmnoNJjtdoU4ODNGeaJh+DszpgQCvxUT0ojoSJ1m5IFVaHSFr380+HmTzXGyqWNreW39hZ4RziJDpUgMl5ntjk5Tv1opnz9WfU2BZUYrV0xIq9HpGQVWodFFScQv7D7m9XpHOM6QW/KnYTiBifwFv1s2w4/jzrR1PvjhF46LlxnNemOZRjuqi3fjcbrdz24/PCpDLR6XTETH61sa9cb7Z0+amRIXKPS3OV2jMvjIlTZ3lDZfj6cq15XhBJYdr4oPkxLRS3tLHFe+iPfjuMKc9AVjk9RKeZ/NUavrfutIebP+m5Psldljnlg8bePRynZD3/LxaWNU4Z19/R9+eW5n1fnC7PRFWeqUiLB2Q987R6sOnW/mJ/nDzbPnZyTe9d7OldljZqXFE1FVW9erB0rbDSYiChMH7Xp4FRGtL9p7qrGdiOaPVf/3zbOIaOaLm/KTY168dR4/zp9uW0BEn5TXvLz3ZJQ0ZOn41GkpsdHSEKFA0NZj2nm6fmtFrXvAXnlyQvSa/MxkZVhogLDd2PdJec22yvP88jtc7lkvbbqm9W3r7Vs+ITVdpejqsxSVnd1WeX7IrSfguAVj1UR0sE7TrDfcP3tSoEg4PSXuQE0T/4bHF00tzEk/1961btNn/DMf3rsyMVy2qeT0G4fK//7Lm9Miw4goQ6UoeeouIlr0ygf8BaFYJLy7YOKkhOh4eWiHqb9Co91wpMJkc/CDfPbQqkCh/9p3dqydPj47ThUaKPqq9cIr+07pTGbfssXJJetmZmdEKcLFQU16w4Gapo/Kqt0eLxElhEs331tYrtG+cah87bTx42KUNpf7YE3zm0cqxsdE/NuUrMxoZb/NsetMw99PVPEbecgteUt2+sLMJLVC5vFSk97w5uHy022dM1MTFmepkyPClKHBPf22Gm3XW0cqNd2GK35SrwPDCSw1IoyIrA7nVU60/DjulVULcxOj+T9DAkRR0pAZKbHri/ZWaHS+t60ryPY9TgqQPb1k+rqCiRGhYt+Mnr91zr2bdp1p7+Sf4TjuvbtW+CaZlRY/OSHqzne3d3zX1Y7T5bE6nEEiIf9nt9lqcTiJaFKC6u4ZE4nI4/X6cVyaKvxXqvAoWcirB0r5d/puM/CSlWHhIcGDhh/O+ooDpL9ePL3f7txX3TR4wHx1jDw40OZwnmpst7vcjV29aqV8QUaSL7CrM1ptvsfdZisRcUREpAgNemftCt+Vs1ohUytks9IS7nh7u28ScYDwk/tv9U0+Ky0+Lkxy58ZtfA95SdEv/Wy+yF/Av5oZrcyMVuarY9cX7fWdK05KiNq4dplvhNVTshZmquXBQQI/joikQQH3zMx2eTybSk4PXnKO4/5824Ip6ks3tyfGRXIc5yV6eH5elFRMRB6vN0oqjpKK85Ki12zY1tnX/322yY9iOIElhkuJyGC1X+Xk++eTx+YmRjvd7v/57FhJY1tKRNjvlxeoJCG/uWnGz978dOCEf9l/6sTXbamR4b9ePDU0MCAiVPzC7hMVGm1WbMSTN00TCQS3ZI/xBcb7zw92N1zomZQQ9ftlBeIA4QOzJv1226GrL/PJxrYlrxYV/+oXRPTYR/uOX7zrVVyrsThcVa0Xeiw2SWDAfbMm3ZKddvvkzLcOV9hd7tSIsHsKcohoa2XdppIqq8OdEiEb8tbFNa1vSWO7Wil/YlG+LDhoZXb6kIHxtzeOf93G3+g/WKtRK+VTU2JDAkRmu+PqK0tED3+456G5uaunZNXo9L98d6fv+ccWTlOGBmuN5me2H9Z0G2akxj950zRlaPCDc3P/d9fRgSM88M/dRqt9zZSsJeNS1ArZhPjICo0uUCT8zdIZIn/Bl00dL35RYne51uRnrcrNzEuKXpyVvPtMg2/yWl33c58fCwkQPTIvb4wqXBES/H7J6S/ONSpDgx9dMCU+THpLdvqQgRXmjJmijnF7vC/vLSmu0wT6+6dEhJ1p6/R6vc/tOtpndzTrDS63Z1xsxB8L50mCAwpz0v92uPw7N8iPZThfNHf2WYgoUiIOuLgbG2xOegIRfXGucW91Y5/NUdmie+1gGRFFy0OjZCG+tznc7s2l1S09pgM1TcfqW4morbdv+1d1rb2m3Wcaypq1RBQnlwwcec/ZhgqNzmRzFNdptnxVR0Q5CVHDWAtev8N5sLa5u9+qCAlSScX1F7qJSODH8efAM9MSBH6c1tj/pz0lOmO/0Wor1+gumIbYX17T+mq6jcW1zQfrNEQUe/na8cQiYUFaAhHV6PQqqVglFdfpuolIJBAUpMUPe2WFAsGMlDgieutIxZn2TpPN8fmZhp2n64koN/Gybfh6cXlli66xq/f14jJ+7xAnlxJRVpSSP7947vNj7QaT3mz564HSJr2BiPIuHr15L+0pqb/QU9mi+6S8mn/m4/Kaxq7eU43tO6rOE5FKEiwUDPH5mZeeRET7q7/eWllnsNh0JvOxhhaXx0NEZRptna7b46X4cKnb4+13OokoUSEb9gb5AQznCFbf2UNEfhw3My1+yL0vXTzKtQ248cp/dokoMlR86YxuwCGw3dhHRPxZBK/D0EdE/v5X3As0dfUSkSwowN9vmD9J8eO4X+SPWz4hLVYeOvB5ob+AiNRKGRG1G0ye77pRNpz17ekjItFQazc3PZHfeT04J/fBObkDX1qQkTTwQHFNYuWh/OYdeBDml1MREizw4/jrKCIi7psH3f1Wm9MVJBL6CzgiSlBIiMjpdvv2Ml6vt76zJ0kh853Yf0u74ZuLN9//LL81OI4TCPwGf7OXpJASUUvPEKcJCeGy9fNzs+OjBu7ZA6788bgeDGfhKjQ6k8VORI/Mm6KSDr1Zu/qsRKSOkPueiZJ98wlu1o/oqjRCcumAECOXEJHWaHZ5PL4GIq/wP+3DcZcavmPquPtnTwrwFzz+8f5lf9286q0tA99psFiJKD5MMjD7IY3u+i7OSrnSS3lJMdKgQCLiY42QfNfK0qUl7zZb+AfJygHLKQ0lopYe46W6rkxvthKRUCAYeFoRIw0loubukX7zweu12Gmo41KAv2Dj2qX56thdp8+v3rB13sv/OFTXPCpzZGo4gRmttj/vO0lE4SFBH6xbefeMiZMTohPCpdOTY+/IH5+okBJRmaaDiOanJ62YkCYWCdVK+UNzJxPRV60Xei22q49/ddnxqtlpiSEBotzE6MKcDCI61tBKRAaLjb9vsTInPSFclhIhf2Z5wcAJHU4Xfz0zKTHK19i42EgiMtsdZS06g9U2+fIzparWTiKKCBU/ujA/WCTkOC5OLgkTBw1eqlFc30iJODs+koie3XFk6vPv+v7xl1ICP25OejwRtfeaiUgZGrwyJz1SIl4wNikx/LIPpcFiJ6IkhUwR+s0Cm2yO87puIlpXMHFyQlSgSDg1OfbWnAwiKv5+H9azbZ389wS/XTYjIVwmFglX52VlxiiJqLh2dH7oxG/zeRmJy8enCjjO388vXRXu7+enVshDAkREVKPVN+kNgUL/2WMSR2WOTA3zi+Y91Y0KSfA9BTlBIuHAO2NEFBIofONQ+cYjlQWpcTEyyVNLpj+1ZDr/ktFq+9aV9PA8f+sc32Odyfz20Ur+8Wen62+bPDZdFb753pWDp/J4vccbWuemJ67KzVw4Vl2h0f5u++HKFu305NgkhWzff612uNzBF28z8vbVNC2bkJqbGF2Ynb5y4hi70xUoEvL3wb81+Ciu76LMZI7jnG738YbLvlau0em1xv4oqXh+hnpb5fkDtU33FEwMFAmfWDSVFk0dPE5JY+t/zMoJ8Bdse+D2nn7r45/sr9N1v7D7xBt3LFGEBL+6erHvnec6ut47PsT9hsG6+62vFZc+tnDq+NjIgRu5qLSa38WM3N8OlxekxoWHBD29dMYTN03zeL0igWB90d6qtk6DxSoLDvrN0oIH5+ZJAkWjMjvWhn/++s+TZ9ds2LalsvZ02wWz3WG02hs6e4tKqw/UNhNRv8N559s7PvzybGNXr83patQbtlTW3v7m1pH/eqhCozvW0GpxOLVG886q8//+zg7fdzj/X1y2ufRcV5+l22w9VNe8esNWrdE8cNo/7j6+o+q83mwR+QukwYFEtPnLc28f+0pr7He5PVpj34tfnBh44uH1eh8t2vdacWmNTm91uhwuT1XbhfqhvpwYxfXl7x+WNmsH3y08VNdERNnxKkVo0AVT/yNF+861d1kdzhqd/rXi0uc/Pz7wzQ2dvU9tOVCn63a63Q63K0oSSkQ1Ov2aDdv2Vzd2GPosDufZjq7XD5Xd9/7n3/9Xjp+W1z70wZ7S5o5ei81gsZZptE9uOfjK/lPXuppXYrTa1mzctqWipklv8Hi8Rov9yPkWk8VuczjXF+0r02gtDqfb49lf0/zEpwdGa6bscMlJeT/2Mnxff7h59oKxSXvONjy7cxQOgwA/gOv6DgzAjQ6BATCEwAAYupGuwQBuODiCATCEwAAYQmAADCEwAIYQGABDCAyAIQQGwBACA2AIgQEwhMAAGEJgAAwhMACGEBgAQwgMgCEEBsAQAgNgCIEBMITAABhCYAAMITAAhhAYAEMIDIAhBAbAEAIDYAiBATCEwAAYQmAADCEwAIYQGABDCAyAIQQGwBACA2AIgQEwhMAAGEJgAAwhMACGEBgAQwgMgCEEBsAQAgNgCIEBMITAABhCYAAMITAAhhAYAEMIDIAhBAbAEAIDYAiBATCEwAAYQmAADCEwAIYQGABDCAyAIQQGwBACA2AIgQEwhMAAGEJgAAwhMACGEBgAQwgMgCEEBsAQAgNgCIEBMITAABhCYAAMITAAhhAYAEMIDIAhBAbAEAIDYAiBATCEwAAYQmAADCEwAIYQGABDCAyAIQQGwBACA2AIgQEwhMAAGEJgAAwhMACGEBgAQ/8CFQeicRe8FP0AAAAASUVORK5CYII=;" vertex="1" parent="1">
          <mxGeometry x="1300" y="20" width="785.45" height="360" as="geometry" />
        </mxCell>
        <mxCell id="0yMUKXwJDYe7jOVYLK8S-34" value="" style="ellipse;whiteSpace=wrap;html=1;strokeColor=#d88f8c;strokeWidth=3;align=center;verticalAlign=top;fontFamily=Helvetica;fontSize=12;fontColor=default;fillColor=#242434;" parent="1" vertex="1">
          <mxGeometry x="910" y="220" width="310" height="50" as="geometry" />
        </mxCell>
        <mxCell id="0yMUKXwJDYe7jOVYLK8S-35" value="Managed element" style="text;html=1;strokeColor=none;fillColor=none;align=center;verticalAlign=middle;whiteSpace=wrap;rounded=0;fontColor=#ffffff;strokeWidth=3;" parent="1" vertex="1">
          <mxGeometry x="1014.2850000000001" y="230" width="101.43" height="30" as="geometry" />
        </mxCell>
      </root>
    </mxGraphModel>
  </diagram>
</mxfile>
